<svg xmlns="http://www.w3.org/2000/svg" xmlns:xlink="http://www.w3.org/1999/xlink" xml:space="preserve" style="shape-rendering:geometricPrecision;text-rendering:geometricPrecision;image-rendering:optimizeQuality;" viewBox="0 0 8.4262 6.157125" x="0px" y="0px" fill-rule="evenodd" clip-rule="evenodd"><defs><style type="text/css">

    .fil0 {fill:black}

  </style></defs><g><path class="fil0" d="M0.1274 -0.0001l5.2537 0c0.0701,0 0.1274,0.0573 0.1274,0.1274l0 3.6941c0,0.0701 -0.0573,0.1274 -0.1274,0.1274l-5.2537 0c-0.0701,0 -0.1274,-0.0573 -0.1274,-0.1274l0 -3.6941c0,-0.0701 0.0573,-0.1274 0.1274,-0.1274zm6.0404 0.0031l2.2585 0 0 4.9152 -2.2585 0 0 -4.9152zm1.1292 1.4751c0.2715,0 0.2715,0.4128 0,0.4128 -0.2714,0 -0.2714,-0.4128 0,-0.4128zm-0.6357 -0.5973l1.2715 0 0 0.2767 -1.2715 0 0 -0.2767zm0 -0.5126l1.2715 0 0 0.2767 -1.2715 0 0 -0.2767zm-0.0207 3.9399l1.2714 0 0 0.2767 -1.2714 0 0 -0.2767zm-4.3141 -0.2619l0.8183 0c0.0056,0.3621 -0.1917,0.3817 0.624,0.8795 -0.8299,0 -1.1992,0 -2.029,0 0.8284,-0.5022 0.5894,-0.5241 0.5867,-0.8795zm-1.7429 -3.8345l4.3081 0c0.155,0 0.2817,0.1268 0.2817,0.2817l0 2.9288c0,0.1549 -0.1267,0.2817 -0.2817,0.2817l-4.3081 0c-0.1549,0 -0.2817,-0.1268 -0.2817,-0.2817l0 -2.9288c0,-0.1549 0.1268,-0.2817 0.2817,-0.2817z"/></g></svg>