<svg xmlns:x="http://ns.adobe.com/Extensibility/1.0/" xmlns:i="http://ns.adobe.com/AdobeIllustrator/10.0/" xmlns:graph="http://ns.adobe.com/Graphs/1.0/" xmlns="http://www.w3.org/2000/svg" xmlns:xlink="http://www.w3.org/1999/xlink" version="1.1" x="0px" y="0px" viewBox="0 0 64 80" enable-background="new 0 0 64 64" xml:space="preserve"><metadata><sfw xmlns="http://ns.adobe.com/SaveForWeb/1.0/"><slices/><sliceSourceBounds height="16384" width="16389" x="-8165" y="-8160" bottomLeftOrigin="true"/></sfw></metadata><g><g><path d="M55.5,23H44.923c-2.075-1.31-4.462-2-6.923-2s-4.848,0.69-6.923,2H8.5C6.57,23,5,24.57,5,26.5V48c0,0.553,0.448,1,1,1h4    c-0.552,0-1,0.447-1,1s0.448,1,1,1h4c0.552,0,1-0.447,1-1s-0.448-1-1-1h36c-0.553,0-1,0.447-1,1s0.447,1,1,1h4    c0.553,0,1-0.447,1-1s-0.447-1-1-1h4c0.553,0,1-0.447,1-1V26.5C59,24.57,57.43,23,55.5,23z M57,47H7V26.5    C7,25.673,7.673,25,8.5,25h22.872c0.197,0,0.389-0.058,0.553-0.167c3.61-2.398,8.54-2.398,12.149,0    C44.238,24.942,44.431,25,44.628,25H55.5c0.827,0,1.5,0.673,1.5,1.5V47z"/><path d="M38,27c-4.963,0-9,4.038-9,9c0,4.963,4.037,9,9,9s9-4.037,9-9C47,31.038,42.963,27,38,27z M38,43c-3.859,0-7-3.141-7-7    c0-3.86,3.141-7,7-7s7,3.14,7,7C45,39.859,41.859,43,38,43z"/><path d="M38,31c-0.553,0-1,0.448-1,1s0.447,1,1,1c1.654,0,3,1.346,3,3c0,0.553,0.447,1,1,1s1-0.447,1-1C43,33.243,40.757,31,38,31    z"/><path d="M38,37c-0.552,0-1-0.448-1-1c0-0.553-0.447-1-1-1s-1,0.447-1,1c0,1.654,1.346,3,3,3c0.553,0,1-0.447,1-1S38.553,37,38,37z    "/><path d="M22,33H10c-0.552,0-1,0.447-1,1s0.448,1,1,1h12c0.552,0,1-0.447,1-1S22.552,33,22,33z"/><path d="M22,37H10c-0.552,0-1,0.447-1,1s0.448,1,1,1h12c0.552,0,1-0.447,1-1S22.552,37,22,37z"/><path d="M22,41H10c-0.552,0-1,0.447-1,1s0.448,1,1,1h12c0.552,0,1-0.447,1-1S22.552,41,22,41z"/><circle cx="53" cy="29" r="1"/><path d="M38,19c0.553,0,1-0.448,1-1v-4c0-0.552-0.447-1-1-1s-1,0.448-1,1v4C37,18.552,37.447,19,38,19z"/><path d="M45.135,20.443c0.137,0.064,0.28,0.094,0.422,0.094c0.377,0,0.737-0.213,0.907-0.577l1.69-3.625    c0.233-0.501,0.017-1.096-0.483-1.329c-0.499-0.233-1.095-0.016-1.329,0.483l-1.69,3.625    C44.418,19.615,44.635,20.21,45.135,20.443z"/><path d="M29.595,20.224c0.169,0.364,0.53,0.577,0.907,0.577c0.142,0,0.286-0.03,0.422-0.094c0.5-0.233,0.717-0.828,0.483-1.329    l-1.69-3.625c-0.233-0.501-0.829-0.717-1.329-0.483c-0.5,0.233-0.717,0.828-0.483,1.329L29.595,20.224z"/></g></g></svg>