<svg xmlns="http://www.w3.org/2000/svg" xmlns:xlink="http://www.w3.org/1999/xlink" version="1.1" x="0px" y="0px" viewBox="0 0 100 125" style="enable-background:new 0 0 100 100;" xml:space="preserve"><style type="text/css">
	.st0{fill:none;stroke:#000000;stroke-width:2;stroke-linecap:round;stroke-linejoin:round;stroke-miterlimit:10;}
</style><path d="M89,88H75.74756v-9.16406h10.8999c1.77979,0,3.22754-1.44824,3.22754-3.22754v-9.77539c0-0.55273-0.44775-1-1-1  s-1,0.44727-1,1v5.00098h-2.56445V55.45605c0-4.06543-3.30762-7.37305-7.37305-7.37305h-2.18994v-7.33008h10.8999  c1.77979,0,3.22754-1.44824,3.22754-3.22754v-9.77637c0-0.55273-0.44775-1-1-1s-1,0.44727-1,1v5.00195h-2.56445V17.37305  C85.31055,13.30762,82.00293,10,77.9375,10h-6.37988c-4.06543,0-7.37305,3.30762-7.37305,7.37305v15.37793h-3.74756V17.37305  c0-4.06543-3.30762-7.37305-7.37305-7.37305h-6.37988c-4.06543,0-7.37305,3.30762-7.37305,7.37305v15.37793h-3.74756V17.37305  c0-4.06543-3.30762-7.37305-7.37305-7.37305h-6.37988c-4.06543,0-7.37305,3.30762-7.37305,7.37305v15.37793H12v-5.00195  c0-0.55273-0.44775-1-1-1s-1,0.44727-1,1v9.77637c0,1.7793,1.44775,3.22754,3.22754,3.22754h10.77295v7.33008h-2.18994  c-4.06543,0-7.37305,3.30762-7.37305,7.37305v15.37793H12v-5.00098c0-0.55273-0.44775-1-1-1s-1,0.44727-1,1v9.77539  c0,1.7793,1.44775,3.22754,3.22754,3.22754h10.77295V88h-13c-0.55225,0-1,0.44727-1,1s0.44775,1,1,1H89c0.55225,0,1-0.44727,1-1  S89.55225,88,89,88z M73.74756,88H50.87402v-9.16406h22.87354V88z M61.37451,72.83398v4.00195H38.45703v-4.00195H61.37451z   M53.06396,50.08301c2.96289,0,5.37305,2.41016,5.37305,5.37305v15.37793H41.31104V55.45605  c0-2.96289,2.41016-5.37305,5.37305-5.37305H53.06396z M87.875,75.6084c0,0.67676-0.55078,1.22754-1.22754,1.22754H63.37451  v-4.00195H87.875V75.6084z M83.31055,55.45605v15.37793H66.18457V55.45605c0-2.96289,2.41016-5.37305,5.37305-5.37305h6.37988  C80.90039,50.08301,83.31055,52.49316,83.31055,55.45605z M73.74756,48.08301h-2.18994c-4.06543,0-7.37305,3.30762-7.37305,7.37305  v15.37793h-3.74756V55.45605c0-4.06543-3.30762-7.37305-7.37305-7.37305h-2.18994v-7.33008h22.87354V48.08301z M61.37451,34.75098  v4.00195H38.45703v-4.00195H61.37451z M87.875,37.52539c0,0.67676-0.55078,1.22754-1.22754,1.22754H63.37451v-4.00195H87.875  V37.52539z M66.18457,17.37305c0-2.96289,2.41016-5.37305,5.37305-5.37305h6.37988c2.96289,0,5.37305,2.41016,5.37305,5.37305  v15.37793H66.18457V17.37305z M41.31104,17.37305c0-2.96289,2.41016-5.37305,5.37305-5.37305h6.37988  c2.96289,0,5.37305,2.41016,5.37305,5.37305v15.37793H41.31104V17.37305z M16.4375,17.37305  C16.4375,14.41016,18.84766,12,21.81055,12h6.37988c2.96289,0,5.37305,2.41016,5.37305,5.37305v15.37793H16.4375V17.37305z   M12,37.52539v-2.77441h24.45703v4.00195H13.22754C12.55078,38.75293,12,38.20215,12,37.52539z M26.00049,40.75293h22.87354v7.33008  h-2.18994c-4.06543,0-7.37305,3.30762-7.37305,7.37305v15.37793h-3.74756V55.45605c0-4.06543-3.30762-7.37305-7.37305-7.37305  h-2.18994V40.75293z M16.4375,55.45605c0-2.96289,2.41016-5.37305,5.37305-5.37305h6.37988  c2.96289,0,5.37305,2.41016,5.37305,5.37305v15.37793H16.4375V55.45605z M12,75.6084v-2.77441h24.45703v4.00195H13.22754  C12.55078,76.83594,12,76.28516,12,75.6084z M26.00049,78.83594h22.87354V88H26.00049V78.83594z"/></svg>