<svg xmlns="http://www.w3.org/2000/svg" viewBox="0 0 100 125" x="0px" y="0px"><title>Noun_Project_100Icon_hw _180122_ol</title><g data-name="Layer 2"><path d="M39.72,31.22A10.29,10.29,0,0,0,49.5,41.41v5.72h-7a.5.5,0,0,0,0,1H57.46a.5.5,0,0,0,0-1h-7V41.41a10.29,10.29,0,0,0,9.79-10.19c3.1-.16,4.5-1.79,4.5-5.27V18.87a.5.5,0,0,0-.5-.5h-4v-1a.5.5,0,0,0-.5-.5H40.21a.5.5,0,0,0-.5.5v1h-4a.5.5,0,0,0-.5.5v7.08C35.21,29.43,36.62,31.06,39.72,31.22ZM63.79,19.37v6.58c0,2.94-1,4.14-3.5,4.28V19.37ZM40.71,17.88H59.29V31.15a9.29,9.29,0,1,1-18.58,0Zm-4.51,1.49h3.51V30.23c-2.53-.14-3.51-1.33-3.51-4.28Z"/><path d="M76.2,66.57a.5.5,0,1,0,1,0V58.68a.5.5,0,0,0-.5-.5H50.5v-4a.5.5,0,0,0-1,0v4H23.3a.5.5,0,0,0-.5.5v7.89a.5.5,0,0,0,1,0V59.18H76.2Z"/><path d="M31.85,70.28H14.75a.5.5,0,0,0-.5.5V82.62a.5.5,0,0,0,.5.5h17.1a.5.5,0,0,0,.5-.5V70.78A.5.5,0,0,0,31.85,70.28Zm-.5,11.84H15.25V71.28h16.1Z"/><path d="M85.25,70.28H68.15a.5.5,0,0,0-.5.5V82.62a.5.5,0,0,0,.5.5h17.1a.5.5,0,0,0,.5-.5V70.78A.5.5,0,0,0,85.25,70.28Zm-.5,11.84H68.65V71.28h16.1Z"/><path d="M46.45,26.3l2.75.89-1.7,2.34a.5.5,0,1,0,.81.59L50,27.78l1.7,2.34a.5.5,0,1,0,.81-.59l-1.7-2.34,2.75-.89a.5.5,0,0,0-.31-1l-2.75.89V23.35a.5.5,0,0,0-1,0v2.89l-2.75-.89a.5.5,0,0,0-.31,1Z"/></g></svg>