<svg xmlns="http://www.w3.org/2000/svg" viewBox="0 0 8.426 6.157" fill-rule="evenodd" clip-rule="evenodd" shape-rendering="geometricPrecision" text-rendering="geometricPrecision" image-rendering="optimizeQuality"><path d="M.127 0h5.254c.07 0 .127.057.127.127v3.694c0 .07-.057.128-.127.128H.127A.128.128 0 010 3.82V.127C0 .057.057 0 .127 0zm6.04.003h2.26v4.915h-2.26V.003zm1.13 1.475c.272 0 .272.413 0 .413-.271 0-.271-.413 0-.413zM6.661.881h1.272v.276H6.66V.881zm0-.513h1.272v.277H6.66V.368zm-.02 3.94h1.271v.277H6.641v-.277zm-4.314-.262h.818c.005.362-.192.382.624.88h-2.03c.83-.502.59-.524.588-.88zM.584.212h4.308c.155 0 .281.127.281.281v2.93a.283.283 0 01-.281.28H.584a.283.283 0 01-.282-.28V.492c0-.152.127-.28.282-.28z"/></svg>