<svg xmlns="http://www.w3.org/2000/svg" viewBox="0 0 64 80"><path d="M55.5 23H44.923c-2.075-1.31-4.462-2-6.923-2s-4.848.69-6.923 2H8.5C6.57 23 5 24.57 5 26.5V48a1 1 0 001 1h4a1 1 0 100 2h4a1 1 0 100-2h36a1 1 0 100 2h4a1 1 0 100-2h4a1 1 0 001-1V26.5c0-1.93-1.57-3.5-3.5-3.5zM57 47H7V26.5c0-.827.673-1.5 1.5-1.5h22.872a.998.998 0 00.553-.167c3.61-2.398 8.54-2.398 12.149 0 .164.109.357.167.554.167H55.5c.827 0 1.5.673 1.5 1.5V47z"/><path d="M38 27c-4.963 0-9 4.038-9 9 0 4.963 4.037 9 9 9s9-4.037 9-9c0-4.962-4.037-9-9-9zm0 16c-3.859 0-7-3.141-7-7 0-3.86 3.141-7 7-7s7 3.14 7 7c0 3.859-3.141 7-7 7z"/><path d="M38 31a1 1 0 100 2c1.654 0 3 1.346 3 3a1 1 0 102 0c0-2.757-2.243-5-5-5zm0 6a1 1 0 01-1-1 1 1 0 10-2 0c0 1.654 1.346 3 3 3a1 1 0 100-2zm-16-4H10a1 1 0 100 2h12a1 1 0 100-2zm0 4H10a1 1 0 100 2h12a1 1 0 100-2zm0 4H10a1 1 0 100 2h12a1 1 0 100-2z"/><circle cx="53" cy="29" r="1"/><path d="M38 19a1 1 0 001-1v-4a1 1 0 10-2 0v4a1 1 0 001 1zm7.135 1.443a1 1 0 001.329-.483l1.69-3.625a1 1 0 00-1.812-.846l-1.69 3.625a1 1 0 00.483 1.329zm-15.54-.219a.998.998 0 001.329.483 1 1 0 00.483-1.329l-1.69-3.625a.999.999 0 10-1.812.846l1.69 3.625z"/></svg>