<svg xmlns="http://www.w3.org/2000/svg" viewBox="0 0 100 125"><style/><path d="M89 88H75.748v-9.164h10.9a3.231 3.231 0 0 0 3.227-3.228v-9.775a1 1 0 1 0-2 0v5.001h-2.564V55.456c0-4.065-3.308-7.373-7.374-7.373h-2.19v-7.33h10.9a3.231 3.231 0 0 0 3.228-3.228V27.75a1 1 0 1 0-2 0v5.002h-2.564V17.373c0-4.065-3.308-7.373-7.374-7.373h-6.38c-4.065 0-7.372 3.308-7.372 7.373v15.378h-3.748V17.373c0-4.065-3.308-7.373-7.373-7.373h-6.38c-4.065 0-7.373 3.308-7.373 7.373v15.378h-3.748V17.373c0-4.065-3.307-7.373-7.373-7.373h-6.38c-4.065 0-7.373 3.308-7.373 7.373v15.378H12v-5.002a1 1 0 1 0-2 0v9.776a3.231 3.231 0 0 0 3.228 3.228H24v7.33h-2.19c-4.065 0-7.372 3.308-7.372 7.373v15.378H12v-5.001a1 1 0 1 0-2 0v9.775a3.231 3.231 0 0 0 3.228 3.228H24V88H11a1 1 0 1 0 0 2h78a1 1 0 1 0 0-2zm-15.252 0H50.874v-9.164h22.874V88zM61.375 72.834v4.002H38.457v-4.002h22.918zm-8.311-22.751a5.379 5.379 0 0 1 5.373 5.373v15.378H41.311V55.456a5.379 5.379 0 0 1 5.373-5.373h6.38zm34.811 25.525a1.23 1.23 0 0 1-1.228 1.228H63.375v-4.002h24.5v2.774zm-4.564-20.152v15.378H66.185V55.456a5.379 5.379 0 0 1 5.373-5.373h6.38a5.379 5.379 0 0 1 5.373 5.373zm-9.563-7.373h-2.19c-4.066 0-7.373 3.308-7.373 7.373v15.378h-3.748V55.456c0-4.065-3.308-7.373-7.373-7.373h-2.19v-7.33h22.874v7.33zM61.375 34.751v4.002H38.457V34.75h22.918zm26.5 2.774a1.23 1.23 0 0 1-1.228 1.228H63.375V34.75h24.5v2.774zm-21.69-20.152A5.379 5.379 0 0 1 71.558 12h6.38a5.379 5.379 0 0 1 5.373 5.373v15.378H66.185V17.373zm-24.874 0A5.379 5.379 0 0 1 46.684 12h6.38a5.379 5.379 0 0 1 5.373 5.373v15.378H41.311V17.373zm-24.873 0A5.379 5.379 0 0 1 21.81 12h6.38a5.379 5.379 0 0 1 5.372 5.373v15.378H16.437V17.373zM12 37.525v-2.774h24.457v4.002h-23.23A1.23 1.23 0 0 1 12 37.525zm14 3.228h22.874v7.33h-2.19c-4.065 0-7.373 3.308-7.373 7.373v15.378h-3.748V55.456c0-4.065-3.307-7.373-7.373-7.373H26v-7.33zm-9.563 14.703a5.379 5.379 0 0 1 5.374-5.373h6.38a5.379 5.379 0 0 1 5.372 5.373v15.378H16.437V55.456zM12 75.608v-2.774h24.457v4.002h-23.23A1.23 1.23 0 0 1 12 75.608zm14 3.228h22.874V88H26v-9.164z"/></svg>