<svg xmlns="http://www.w3.org/2000/svg" viewBox="0 0 100 125"><g data-name="Layer 2"><path d="M39.72 31.22a10.29 10.29 0 009.78 10.19v5.72h-7a.5.5 0 000 1h14.96a.5.5 0 000-1h-7v-5.72a10.29 10.29 0 009.79-10.19c3.1-.16 4.5-1.79 4.5-5.27v-7.08a.5.5 0 00-.5-.5h-4v-1a.5.5 0 00-.5-.5H40.21a.5.5 0 00-.5.5v1h-4a.5.5 0 00-.5.5v7.08c0 3.48 1.41 5.11 4.51 5.27zm24.07-11.85v6.58c0 2.94-1 4.14-3.5 4.28V19.37zm-23.08-1.49h18.58v13.27a9.29 9.29 0 11-18.58 0zm-4.51 1.49h3.51v10.86c-2.53-.14-3.51-1.33-3.51-4.28zm40 47.2a.5.5 0 101 0v-7.89a.5.5 0 00-.5-.5H50.5v-4a.5.5 0 00-1 0v4H23.3a.5.5 0 00-.5.5v7.89a.5.5 0 001 0v-7.39h52.4zm-44.35 3.71h-17.1a.5.5 0 00-.5.5v11.84a.5.5 0 00.5.5h17.1a.5.5 0 00.5-.5V70.78a.5.5 0 00-.5-.5zm-.5 11.84h-16.1V71.28h16.1zm53.9-11.84h-17.1a.5.5 0 00-.5.5v11.84a.5.5 0 00.5.5h17.1a.5.5 0 00.5-.5V70.78a.5.5 0 00-.5-.5zm-.5 11.84h-16.1V71.28h16.1z"/><path d="M46.45 26.3l2.75.89-1.7 2.34a.5.5 0 10.81.59L50 27.78l1.7 2.34a.5.5 0 10.81-.59l-1.7-2.34 2.75-.89a.5.5 0 00-.31-1l-2.75.89v-2.84a.5.5 0 00-1 0v2.89l-2.75-.89a.5.5 0 00-.31 1z"/></g></svg>